%TF.GenerationSoftware,KiCad,Pcbnew,(5.99.0-11336-g5116fa6d12)*%
%TF.CreationDate,2021-08-09T23:44:28+02:00*%
%TF.ProjectId,CautionHot_Sign,43617574-696f-46e4-986f-745f5369676e,rev?*%
%TF.SameCoordinates,Original*%
%TF.FileFunction,Legend,Bot*%
%TF.FilePolarity,Positive*%
%FSLAX46Y46*%
G04 Gerber Fmt 4.6, Leading zero omitted, Abs format (unit mm)*
G04 Created by KiCad (PCBNEW (5.99.0-11336-g5116fa6d12)) date 2021-08-09 23:44:28*
%MOMM*%
%LPD*%
G01*
G04 APERTURE LIST*
G04 APERTURE END LIST*
%TO.C,G\u002A\u002A\u002A*%
G36*
X144285373Y-95354038D02*
G01*
X144394004Y-95512167D01*
X144526808Y-95743658D01*
X144665675Y-96014816D01*
X144792493Y-96291947D01*
X144889153Y-96541356D01*
X145058459Y-97232662D01*
X145102139Y-97992571D01*
X144999307Y-98748410D01*
X144751206Y-99491564D01*
X144359081Y-100213416D01*
X144340258Y-100242225D01*
X144049079Y-100710098D01*
X143840973Y-101102331D01*
X143701859Y-101454169D01*
X143617652Y-101800861D01*
X143574271Y-102177651D01*
X143573140Y-102194583D01*
X143584790Y-102901473D01*
X143718949Y-103531246D01*
X143978067Y-104095532D01*
X144098265Y-104305107D01*
X144180335Y-104468894D01*
X144201040Y-104542156D01*
X144176049Y-104563157D01*
X144058211Y-104654558D01*
X143883598Y-104786145D01*
X143784958Y-104855410D01*
X143626219Y-104946472D01*
X143539302Y-104967114D01*
X143450446Y-104864781D01*
X143326163Y-104658198D01*
X143186444Y-104386264D01*
X143049607Y-104086872D01*
X142933968Y-103797917D01*
X142857845Y-103557294D01*
X142822380Y-103409810D01*
X142733255Y-102966725D01*
X142695360Y-102592154D01*
X142705630Y-102231444D01*
X142761002Y-101829942D01*
X142786193Y-101693371D01*
X142894802Y-101245322D01*
X143045826Y-100834837D01*
X143259589Y-100413438D01*
X143556413Y-99932648D01*
X143596718Y-99869931D01*
X143789452Y-99540355D01*
X143960872Y-99204120D01*
X144077904Y-98925123D01*
X144183328Y-98510073D01*
X144234462Y-97951606D01*
X144201870Y-97380859D01*
X144090840Y-96834822D01*
X143906661Y-96350484D01*
X143654622Y-95964836D01*
X143617295Y-95914309D01*
X143610327Y-95835426D01*
X143686474Y-95732674D01*
X143863538Y-95572630D01*
X143996208Y-95462350D01*
X144146847Y-95347028D01*
X144223169Y-95302294D01*
X144285373Y-95354038D01*
G37*
G36*
X147210878Y-95376278D02*
G01*
X147308437Y-95469344D01*
X147426715Y-95665920D01*
X147589646Y-95980621D01*
X147774156Y-96401632D01*
X147969229Y-97129158D01*
X148030324Y-97879298D01*
X147958454Y-98627955D01*
X147754629Y-99351035D01*
X147419861Y-100024441D01*
X147240485Y-100314948D01*
X146991750Y-100736797D01*
X146809808Y-101080275D01*
X146681890Y-101372710D01*
X146595227Y-101641431D01*
X146537048Y-101913765D01*
X146535245Y-101924465D01*
X146494084Y-102615305D01*
X146601079Y-103296125D01*
X146855007Y-103959055D01*
X146871890Y-103992694D01*
X146992613Y-104233719D01*
X147083256Y-104415505D01*
X147125299Y-104500927D01*
X147109416Y-104536887D01*
X147004498Y-104642127D01*
X146831291Y-104780444D01*
X146515337Y-105012800D01*
X146375978Y-104807988D01*
X146122260Y-104386752D01*
X145826897Y-103675628D01*
X145673070Y-102937972D01*
X145660540Y-102186253D01*
X145789070Y-101432941D01*
X146058420Y-100690504D01*
X146468353Y-99971412D01*
X146817026Y-99390931D01*
X147064675Y-98786995D01*
X147185635Y-98182317D01*
X147187503Y-97551326D01*
X147158585Y-97310131D01*
X147090347Y-97002109D01*
X146976394Y-96673306D01*
X146804295Y-96289239D01*
X146561615Y-95815426D01*
X146577458Y-95778100D01*
X146682648Y-95671986D01*
X146856556Y-95532907D01*
X146982195Y-95442214D01*
X147110108Y-95372107D01*
X147210878Y-95376278D01*
G37*
G36*
X150352422Y-95649498D02*
G01*
X150633025Y-96175561D01*
X150872566Y-96881693D01*
X150982029Y-97612382D01*
X150954313Y-98335938D01*
X150945338Y-98398544D01*
X150844562Y-98913777D01*
X150693803Y-99377366D01*
X150473068Y-99840243D01*
X150162363Y-100353340D01*
X149869213Y-100834421D01*
X149660140Y-101269272D01*
X149532947Y-101684026D01*
X149474701Y-102121240D01*
X149472469Y-102623471D01*
X149491245Y-102954991D01*
X149530432Y-103259830D01*
X149598322Y-103516316D01*
X149706012Y-103779386D01*
X149814406Y-103999778D01*
X149938921Y-104222741D01*
X150033907Y-104360519D01*
X150089318Y-104425919D01*
X150109817Y-104509628D01*
X150011741Y-104596694D01*
X149863633Y-104706136D01*
X149680706Y-104849525D01*
X149623373Y-104893486D01*
X149517136Y-104945526D01*
X149421492Y-104924799D01*
X149318392Y-104815465D01*
X149189789Y-104601688D01*
X149017634Y-104267626D01*
X148852877Y-103900724D01*
X148646975Y-103199052D01*
X148585237Y-102487388D01*
X148665000Y-101746703D01*
X148751037Y-101383973D01*
X149038442Y-100618843D01*
X149467600Y-99880701D01*
X149566810Y-99726385D01*
X149739583Y-99425875D01*
X149891362Y-99128607D01*
X149903178Y-99103267D01*
X149987987Y-98904296D01*
X150042865Y-98719625D01*
X150074179Y-98508342D01*
X150088297Y-98229535D01*
X150091588Y-97842294D01*
X150091472Y-97742179D01*
X150086562Y-97385648D01*
X150069419Y-97126869D01*
X150033226Y-96923872D01*
X149971168Y-96734689D01*
X149876431Y-96517349D01*
X149756890Y-96276436D01*
X149641155Y-96075070D01*
X149558931Y-95966584D01*
X149554586Y-95962961D01*
X149477954Y-95879790D01*
X149481944Y-95799302D01*
X149581576Y-95693672D01*
X149791872Y-95535075D01*
X150127157Y-95294292D01*
X150352422Y-95649498D01*
G37*
G36*
X152818353Y-107031118D02*
G01*
X140865411Y-107031118D01*
X140865411Y-105761118D01*
X152818353Y-105761118D01*
X152818353Y-107031118D01*
G37*
G36*
X161560724Y-108607683D02*
G01*
X161647515Y-108808957D01*
X161694029Y-108958129D01*
X161707929Y-109070563D01*
X161707890Y-109082209D01*
X161647416Y-109438316D01*
X161484301Y-109724972D01*
X161236606Y-109910009D01*
X161215339Y-109916998D01*
X161147310Y-109929238D01*
X161037382Y-109940446D01*
X160879581Y-109950668D01*
X160667935Y-109959949D01*
X160396470Y-109968332D01*
X160059214Y-109975862D01*
X159650194Y-109982584D01*
X159163436Y-109988543D01*
X158592969Y-109993782D01*
X157932819Y-109998347D01*
X157177013Y-110002282D01*
X156319579Y-110005631D01*
X155354544Y-110008440D01*
X154275933Y-110010752D01*
X153077776Y-110012613D01*
X151754099Y-110014066D01*
X150298929Y-110015157D01*
X148706293Y-110015930D01*
X146970218Y-110016429D01*
X145922792Y-110016687D01*
X144281894Y-110017195D01*
X142780408Y-110017635D01*
X141412070Y-110017821D01*
X140170615Y-110017567D01*
X139049781Y-110016687D01*
X138043302Y-110014994D01*
X137144915Y-110012302D01*
X136348356Y-110008425D01*
X135647360Y-110003177D01*
X135035663Y-109996371D01*
X134507002Y-109987822D01*
X134055111Y-109977342D01*
X133673728Y-109964745D01*
X133356588Y-109949847D01*
X133097427Y-109932459D01*
X132889980Y-109912396D01*
X132727984Y-109889471D01*
X132605175Y-109863499D01*
X132515288Y-109834293D01*
X132452059Y-109801667D01*
X132409225Y-109765434D01*
X132380521Y-109725408D01*
X132359684Y-109681404D01*
X132340448Y-109633234D01*
X132316550Y-109580713D01*
X132275450Y-109497114D01*
X132218619Y-109344549D01*
X132196662Y-109188819D01*
X132215713Y-109012155D01*
X132281906Y-108796787D01*
X132401375Y-108524946D01*
X132580252Y-108178862D01*
X132611507Y-108122840D01*
X134688582Y-108122840D01*
X134691780Y-108131459D01*
X134727111Y-108144264D01*
X134805126Y-108155901D01*
X134932102Y-108166423D01*
X135114316Y-108175883D01*
X135358048Y-108184334D01*
X135669576Y-108191828D01*
X136055177Y-108198418D01*
X136521130Y-108204158D01*
X137073713Y-108209101D01*
X137719203Y-108213298D01*
X138463881Y-108216804D01*
X139314022Y-108219670D01*
X140275906Y-108221951D01*
X141355811Y-108223698D01*
X142560015Y-108224965D01*
X143894796Y-108225804D01*
X145366432Y-108226269D01*
X146981201Y-108226412D01*
X159313564Y-108226412D01*
X158804745Y-107348618D01*
X158702509Y-107172085D01*
X158516505Y-106850595D01*
X158271233Y-106426449D01*
X157975186Y-105914342D01*
X157636859Y-105328971D01*
X157264744Y-104685032D01*
X156867336Y-103997220D01*
X156453128Y-103280233D01*
X156030615Y-102548765D01*
X155707586Y-101989541D01*
X155281705Y-101252422D01*
X154866656Y-100534222D01*
X154471564Y-99850724D01*
X154105555Y-99217709D01*
X153777753Y-98650959D01*
X153497285Y-98166256D01*
X153273276Y-97779382D01*
X153114851Y-97506118D01*
X153100237Y-97480937D01*
X152924833Y-97178326D01*
X152686143Y-96766032D01*
X152394466Y-96261867D01*
X152060099Y-95683643D01*
X151693342Y-95049174D01*
X151304493Y-94376270D01*
X150903850Y-93682746D01*
X150501712Y-92986412D01*
X150303197Y-92642619D01*
X149738883Y-91665493D01*
X149243237Y-90807630D01*
X148811756Y-90061347D01*
X148439934Y-89418963D01*
X148123268Y-88872796D01*
X147857254Y-88415164D01*
X147637387Y-88038385D01*
X147459162Y-87734777D01*
X147318076Y-87496657D01*
X147209624Y-87316345D01*
X147129302Y-87186158D01*
X147072606Y-87098414D01*
X147035031Y-87045432D01*
X147012073Y-87019529D01*
X146999228Y-87013023D01*
X146965862Y-87058851D01*
X146862999Y-87222955D01*
X146697797Y-87495368D01*
X146477000Y-87864709D01*
X146207351Y-88319597D01*
X145895593Y-88848650D01*
X145548468Y-89440488D01*
X145172720Y-90083730D01*
X144775091Y-90766993D01*
X144733991Y-90837744D01*
X144365996Y-91470959D01*
X143933240Y-92215228D01*
X143445043Y-93054536D01*
X142910729Y-93972867D01*
X142339618Y-94954207D01*
X141741034Y-95982540D01*
X141124298Y-97041851D01*
X140498733Y-98116125D01*
X139873661Y-99189347D01*
X139258404Y-100245502D01*
X138662284Y-101268575D01*
X138196102Y-102068795D01*
X137675670Y-102962741D01*
X137180560Y-103813830D01*
X136715769Y-104613443D01*
X136286294Y-105352960D01*
X135897132Y-106023761D01*
X135553281Y-106617227D01*
X135259737Y-107124739D01*
X135021498Y-107537675D01*
X134843561Y-107847417D01*
X134730924Y-108045345D01*
X134688582Y-108122840D01*
X132611507Y-108122840D01*
X132824671Y-107740765D01*
X133140767Y-107192886D01*
X133496858Y-106580636D01*
X133793337Y-106071099D01*
X134044227Y-105640243D01*
X134264275Y-105262788D01*
X134468230Y-104913456D01*
X134670837Y-104566969D01*
X134886846Y-104198047D01*
X135131004Y-103781412D01*
X135212130Y-103642696D01*
X135377096Y-103359993D01*
X135605714Y-102967800D01*
X135891584Y-102477105D01*
X136228309Y-101898897D01*
X136609491Y-101244167D01*
X137028733Y-100523903D01*
X137479636Y-99749094D01*
X137955804Y-98930730D01*
X138450837Y-98079800D01*
X138958339Y-97207294D01*
X139374543Y-96491718D01*
X139868272Y-95642932D01*
X140342639Y-94827512D01*
X140791452Y-94056101D01*
X141208515Y-93339345D01*
X141587633Y-92687886D01*
X141922614Y-92112368D01*
X142207262Y-91623436D01*
X142435384Y-91231733D01*
X142600784Y-90947902D01*
X142697269Y-90782588D01*
X142778680Y-90643201D01*
X142954917Y-90340860D01*
X143185880Y-89944178D01*
X143459420Y-89474038D01*
X143763386Y-88951324D01*
X144085632Y-88396919D01*
X144414005Y-87831706D01*
X144811987Y-87146903D01*
X145180305Y-86514788D01*
X145487082Y-85991370D01*
X145739227Y-85565876D01*
X145943650Y-85227538D01*
X146107258Y-84965585D01*
X146236962Y-84769248D01*
X146339670Y-84627756D01*
X146422290Y-84530339D01*
X146491731Y-84466228D01*
X146554903Y-84424653D01*
X146618713Y-84394842D01*
X146782359Y-84347960D01*
X147097512Y-84338439D01*
X147399505Y-84411660D01*
X147627174Y-84557744D01*
X147632140Y-84563408D01*
X147710474Y-84677136D01*
X147854151Y-84905564D01*
X148055279Y-85235459D01*
X148305968Y-85653586D01*
X148598324Y-86146714D01*
X148924457Y-86701608D01*
X149276474Y-87305037D01*
X149646483Y-87943765D01*
X150150728Y-88817206D01*
X150602447Y-89599583D01*
X151006908Y-90299988D01*
X151375217Y-90937625D01*
X151718480Y-91531698D01*
X152047803Y-92101412D01*
X152374293Y-92665971D01*
X152709055Y-93244580D01*
X153063197Y-93856444D01*
X153447823Y-94520766D01*
X153874040Y-95256751D01*
X154352954Y-96083604D01*
X154895672Y-97020530D01*
X155064694Y-97312323D01*
X155461440Y-97997313D01*
X155843718Y-98657408D01*
X156202893Y-99277696D01*
X156530334Y-99843263D01*
X156817407Y-100339199D01*
X157055478Y-100750590D01*
X157235915Y-101062524D01*
X157350084Y-101260088D01*
X157445757Y-101425796D01*
X157686952Y-101843273D01*
X157942362Y-102285062D01*
X158170562Y-102679500D01*
X158500152Y-103248884D01*
X158850189Y-103853571D01*
X159150589Y-104372476D01*
X159415277Y-104829645D01*
X159658177Y-105249126D01*
X159893216Y-105654966D01*
X160134316Y-106071214D01*
X160395404Y-106521915D01*
X160690404Y-107031118D01*
X160982045Y-107537645D01*
X161235653Y-107987389D01*
X161365063Y-108226412D01*
X161425992Y-108338948D01*
X161560724Y-108607683D01*
G37*
G36*
X143106593Y-113810677D02*
G01*
X143106588Y-114277588D01*
X142135411Y-114277588D01*
X142135411Y-113381118D01*
X142378206Y-113375368D01*
X142599462Y-113368329D01*
X142863799Y-113356692D01*
X143106599Y-113343765D01*
X143106593Y-113810677D01*
G37*
G36*
X139325943Y-114610460D02*
G01*
X139713452Y-114724335D01*
X140045545Y-114925649D01*
X140267764Y-115112635D01*
X140267764Y-114651118D01*
X141238941Y-114651118D01*
X141238941Y-118376945D01*
X140996147Y-118400355D01*
X140747954Y-118409408D01*
X140483997Y-118398271D01*
X140214640Y-118372777D01*
X140218822Y-117147465D01*
X140219287Y-116971748D01*
X140217989Y-116557642D01*
X140210732Y-116259041D01*
X140194895Y-116050800D01*
X140167857Y-115907776D01*
X140126996Y-115804827D01*
X140069693Y-115716810D01*
X139890729Y-115550788D01*
X139643158Y-115440258D01*
X139384530Y-115410490D01*
X139157370Y-115465739D01*
X139004207Y-115610257D01*
X138952993Y-115728980D01*
X138914713Y-115882956D01*
X138887755Y-116094382D01*
X138870088Y-116386239D01*
X138859679Y-116781510D01*
X138854496Y-117303177D01*
X138848353Y-118423765D01*
X138549529Y-118413093D01*
X138512839Y-118411773D01*
X138264532Y-118402468D01*
X138063941Y-118394416D01*
X137877176Y-118386412D01*
X137877292Y-116910971D01*
X137878040Y-116604182D01*
X137885529Y-116096479D01*
X137904824Y-115706275D01*
X137940500Y-115412398D01*
X137997132Y-115193677D01*
X138079296Y-115028940D01*
X138191568Y-114897016D01*
X138338523Y-114776732D01*
X138561114Y-114660421D01*
X138927128Y-114587873D01*
X139325943Y-114610460D01*
G37*
G36*
X143106745Y-116537441D02*
G01*
X143106901Y-118423765D01*
X142135411Y-118373663D01*
X142135411Y-114651118D01*
X143106588Y-114651118D01*
X143106745Y-116537441D01*
G37*
G36*
X145794008Y-114673781D02*
G01*
X146133773Y-114886659D01*
X146393647Y-115114831D01*
X146393647Y-114651118D01*
X147364823Y-114651118D01*
X147364823Y-116512539D01*
X147363948Y-116915903D01*
X147358518Y-117465884D01*
X147347778Y-117880698D01*
X147331332Y-118169163D01*
X147308782Y-118340099D01*
X147279731Y-118402325D01*
X147227149Y-118411857D01*
X147049110Y-118423981D01*
X146812819Y-118427227D01*
X146431000Y-118423765D01*
X146393647Y-117128778D01*
X146356294Y-115833792D01*
X146112321Y-115615984D01*
X145991904Y-115523120D01*
X145711648Y-115406576D01*
X145443081Y-115421461D01*
X145213163Y-115569177D01*
X145166073Y-115624447D01*
X145120532Y-115704954D01*
X145087995Y-115818934D01*
X145065671Y-115989572D01*
X145050767Y-116240057D01*
X145040492Y-116593576D01*
X145032052Y-117073316D01*
X145011588Y-118406456D01*
X144619382Y-118401414D01*
X144475372Y-118399345D01*
X144249245Y-118395184D01*
X144109611Y-118391392D01*
X144072573Y-118341682D01*
X144037977Y-118166374D01*
X144014398Y-117889424D01*
X144001379Y-117536786D01*
X143998460Y-117134414D01*
X144005181Y-116708260D01*
X144021084Y-116284277D01*
X144045710Y-115888419D01*
X144078598Y-115546638D01*
X144119291Y-115284889D01*
X144167328Y-115129123D01*
X144315362Y-114922114D01*
X144608170Y-114712485D01*
X145005354Y-114603036D01*
X145393050Y-114585495D01*
X145794008Y-114673781D01*
G37*
G36*
X148366597Y-114610789D02*
G01*
X148677648Y-114766555D01*
X148962101Y-115027696D01*
X149157764Y-115260229D01*
X149157764Y-114643988D01*
X149623558Y-114666230D01*
X150089352Y-114688471D01*
X150096174Y-116518765D01*
X150097186Y-116897345D01*
X150097234Y-117369620D01*
X150095874Y-117775631D01*
X150093235Y-118094592D01*
X150089445Y-118305717D01*
X150084632Y-118388219D01*
X150046950Y-118405155D01*
X149905303Y-118415288D01*
X149645074Y-118411838D01*
X149251147Y-118394928D01*
X149200991Y-118390428D01*
X149151684Y-118368066D01*
X149118484Y-118306708D01*
X149098207Y-118184270D01*
X149087668Y-117978670D01*
X149083680Y-117667824D01*
X149083058Y-117229649D01*
X149083058Y-116072887D01*
X148877617Y-115847313D01*
X148755696Y-115730694D01*
X148573994Y-115638190D01*
X148317364Y-115603340D01*
X148200716Y-115594207D01*
X148026777Y-115565148D01*
X147955040Y-115528912D01*
X147948807Y-115401391D01*
X147948563Y-115156423D01*
X147955000Y-114837883D01*
X147968153Y-114685288D01*
X148023395Y-114596292D01*
X148152945Y-114576412D01*
X148366597Y-114610789D01*
G37*
G36*
X155377491Y-113372014D02*
G01*
X155458969Y-113384775D01*
X155471509Y-113419624D01*
X155516174Y-113580601D01*
X155586777Y-113853342D01*
X155678121Y-114217303D01*
X155785009Y-114651939D01*
X155902241Y-115136706D01*
X155983036Y-115468085D01*
X156093790Y-115904099D01*
X156191591Y-116267934D01*
X156271261Y-116541241D01*
X156327623Y-116705673D01*
X156355499Y-116742883D01*
X156361297Y-116723369D01*
X156396190Y-116575665D01*
X156453479Y-116312401D01*
X156528245Y-115956852D01*
X156615574Y-115532294D01*
X156710548Y-115062000D01*
X156744269Y-114894769D01*
X156838033Y-114442662D01*
X156923700Y-114047613D01*
X156996184Y-113732030D01*
X157050399Y-113518315D01*
X157081259Y-113428876D01*
X157084586Y-113425933D01*
X157189931Y-113399879D01*
X157390945Y-113381963D01*
X157638817Y-113373061D01*
X157884736Y-113374051D01*
X158079890Y-113385810D01*
X158175469Y-113409214D01*
X158185228Y-113437807D01*
X158222856Y-113591094D01*
X158282810Y-113857977D01*
X158360536Y-114217585D01*
X158451484Y-114649046D01*
X158551100Y-115131490D01*
X158613316Y-115430338D01*
X158709281Y-115869650D01*
X158795365Y-116237927D01*
X158866876Y-116516268D01*
X158919120Y-116685771D01*
X158947404Y-116727537D01*
X158957820Y-116699397D01*
X159003024Y-116542190D01*
X159074304Y-116271990D01*
X159165968Y-115911049D01*
X159272326Y-115481625D01*
X159387685Y-115005971D01*
X159777776Y-113381118D01*
X160865488Y-113381118D01*
X160162683Y-115827736D01*
X160035057Y-116271874D01*
X159877440Y-116819927D01*
X159736323Y-117310100D01*
X159616648Y-117725247D01*
X159523360Y-118048220D01*
X159461403Y-118261873D01*
X159435720Y-118349059D01*
X159375558Y-118380567D01*
X159189536Y-118396607D01*
X158905051Y-118386412D01*
X158398540Y-118349059D01*
X158075969Y-116780236D01*
X158048631Y-116647130D01*
X157951141Y-116170060D01*
X157862586Y-115733149D01*
X157788300Y-115362938D01*
X157733616Y-115085962D01*
X157703868Y-114928762D01*
X157692835Y-114870356D01*
X157654253Y-114721444D01*
X157623617Y-114676834D01*
X157608758Y-114724678D01*
X157566834Y-114901585D01*
X157503445Y-115189448D01*
X157422932Y-115568075D01*
X157329638Y-116017276D01*
X157227906Y-116516859D01*
X157149727Y-116901501D01*
X157053893Y-117364685D01*
X156969722Y-117762169D01*
X156901575Y-118073740D01*
X156853810Y-118279185D01*
X156830786Y-118358293D01*
X156757086Y-118375677D01*
X156572529Y-118393833D01*
X156321298Y-118407094D01*
X155843941Y-118423765D01*
X155125739Y-115921118D01*
X154982027Y-115418930D01*
X154827129Y-114874209D01*
X154690746Y-114390865D01*
X154577466Y-113985333D01*
X154491875Y-113674047D01*
X154438559Y-113473440D01*
X154422106Y-113399947D01*
X154426896Y-113396955D01*
X154528653Y-113382486D01*
X154722828Y-113372052D01*
X154961184Y-113366358D01*
X155195484Y-113366110D01*
X155377491Y-113372014D01*
G37*
G36*
X154237354Y-117420264D02*
G01*
X154181945Y-117839868D01*
X154027816Y-118158755D01*
X153767226Y-118393693D01*
X153729292Y-118416556D01*
X153553102Y-118491916D01*
X153337566Y-118523004D01*
X153028788Y-118518965D01*
X152842938Y-118506719D01*
X152606295Y-118468587D01*
X152423219Y-118391684D01*
X152233175Y-118256003D01*
X151936831Y-118017855D01*
X151890580Y-118202134D01*
X151881487Y-118236084D01*
X151841193Y-118319197D01*
X151758398Y-118364247D01*
X151597479Y-118382798D01*
X151322812Y-118386412D01*
X151191483Y-118385345D01*
X150957448Y-118371641D01*
X150836017Y-118337895D01*
X150801294Y-118278762D01*
X150807261Y-118233032D01*
X150876000Y-118124941D01*
X150890865Y-118095841D01*
X150915698Y-117934623D01*
X150934548Y-117648782D01*
X150946517Y-117254620D01*
X150950331Y-116811995D01*
X151921882Y-116811995D01*
X151923153Y-116863770D01*
X151991004Y-117198883D01*
X152144831Y-117483963D01*
X152360522Y-117671744D01*
X152520698Y-117740299D01*
X152812926Y-117785749D01*
X153049805Y-117717728D01*
X153208603Y-117546052D01*
X153266588Y-117280536D01*
X153266096Y-117256117D01*
X153224050Y-117092543D01*
X153098718Y-116964681D01*
X152868168Y-116857293D01*
X152510471Y-116755140D01*
X152408750Y-116729625D01*
X152187568Y-116669590D01*
X152043559Y-116624177D01*
X151997427Y-116611903D01*
X151937623Y-116652878D01*
X151921882Y-116811995D01*
X150950331Y-116811995D01*
X150950706Y-116768440D01*
X150951438Y-116475321D01*
X150957302Y-116043029D01*
X150970608Y-115723089D01*
X150993231Y-115491608D01*
X151027047Y-115324687D01*
X151073931Y-115198431D01*
X151142911Y-115073711D01*
X151355259Y-114842671D01*
X151655088Y-114686652D01*
X152059748Y-114598454D01*
X152586591Y-114570880D01*
X152910610Y-114587269D01*
X153375286Y-114691456D01*
X153729970Y-114893911D01*
X153978381Y-115197132D01*
X154124239Y-115603618D01*
X154174930Y-115846412D01*
X153683406Y-115846412D01*
X153564534Y-115845473D01*
X153338960Y-115831807D01*
X153224015Y-115796880D01*
X153191882Y-115734353D01*
X153180898Y-115658919D01*
X153064402Y-115488316D01*
X152849254Y-115368621D01*
X152571161Y-115323471D01*
X152337081Y-115343955D01*
X152103120Y-115446742D01*
X151971369Y-115642665D01*
X151968036Y-115789022D01*
X152096720Y-115933929D01*
X152369949Y-116049650D01*
X152788850Y-116136868D01*
X153060949Y-116183398D01*
X153521308Y-116306382D01*
X153855404Y-116475222D01*
X154077003Y-116701674D01*
X154199868Y-116997495D01*
X154228323Y-117280536D01*
X154237764Y-117374443D01*
X154237354Y-117420264D01*
G37*
G36*
X137096113Y-117224352D02*
G01*
X136909923Y-117668097D01*
X136632694Y-118026806D01*
X136561609Y-118090580D01*
X136292881Y-118265451D01*
X135976888Y-118358802D01*
X135566855Y-118386412D01*
X135330280Y-118376428D01*
X135083714Y-118321387D01*
X134862013Y-118201899D01*
X134590117Y-118017385D01*
X134590117Y-118392059D01*
X134626055Y-118706804D01*
X134756163Y-118949980D01*
X134990168Y-119089133D01*
X135337348Y-119133471D01*
X135573992Y-119120890D01*
X135748906Y-119065431D01*
X135890927Y-118946706D01*
X135976248Y-118865236D01*
X136100702Y-118797911D01*
X136279384Y-118767227D01*
X136559713Y-118759941D01*
X136614520Y-118760004D01*
X136857230Y-118765465D01*
X136989435Y-118787780D01*
X137044335Y-118838214D01*
X137055132Y-118928030D01*
X137053576Y-118969143D01*
X136962984Y-119255455D01*
X136749521Y-119519168D01*
X136436412Y-119738118D01*
X136046882Y-119890145D01*
X136032043Y-119893730D01*
X135834548Y-119917595D01*
X135550810Y-119927612D01*
X135237007Y-119921599D01*
X135177478Y-119918404D01*
X134671268Y-119851493D01*
X134281296Y-119713051D01*
X133989478Y-119493952D01*
X133777733Y-119185070D01*
X133740826Y-119109149D01*
X133695592Y-119001062D01*
X133661019Y-118882188D01*
X133635511Y-118732724D01*
X133617469Y-118532865D01*
X133605297Y-118262808D01*
X133597396Y-117902751D01*
X133592169Y-117432890D01*
X133588019Y-116833421D01*
X133586509Y-116472839D01*
X134590117Y-116472839D01*
X134591162Y-116565188D01*
X134627566Y-116926750D01*
X134725611Y-117194408D01*
X134898451Y-117408062D01*
X135041304Y-117502825D01*
X135332586Y-117559591D01*
X135596289Y-117529166D01*
X135867818Y-117404462D01*
X136046224Y-117176085D01*
X136137233Y-116835703D01*
X136146571Y-116374984D01*
X136142144Y-116299674D01*
X136118658Y-116035594D01*
X136077314Y-115864193D01*
X136001519Y-115738999D01*
X135874679Y-115613542D01*
X135781230Y-115538593D01*
X135494490Y-115404924D01*
X135218331Y-115403534D01*
X134971284Y-115522026D01*
X134771878Y-115748005D01*
X134638646Y-116069074D01*
X134590117Y-116472839D01*
X133586509Y-116472839D01*
X133585837Y-116312355D01*
X133585848Y-115823430D01*
X133587971Y-115401607D01*
X133592035Y-115067460D01*
X133597871Y-114841566D01*
X133605308Y-114744500D01*
X133629239Y-114714739D01*
X133785473Y-114667328D01*
X134075169Y-114651118D01*
X134076739Y-114651118D01*
X134321739Y-114655297D01*
X134452926Y-114677809D01*
X134505688Y-114733667D01*
X134515411Y-114837883D01*
X134533959Y-114960715D01*
X134590117Y-115024647D01*
X134607793Y-115022694D01*
X134664823Y-114956034D01*
X134685493Y-114894160D01*
X134817645Y-114779137D01*
X135038666Y-114677175D01*
X135309523Y-114604269D01*
X135591188Y-114576412D01*
X135696073Y-114578190D01*
X136111466Y-114636285D01*
X136445290Y-114788496D01*
X136737088Y-115051205D01*
X136906390Y-115286080D01*
X137096404Y-115726434D01*
X137190559Y-116219167D01*
X137190407Y-116374984D01*
X137190060Y-116729924D01*
X137096113Y-117224352D01*
G37*
G36*
X142332865Y-121110875D02*
G01*
X142469040Y-121137232D01*
X142747602Y-121256997D01*
X142906626Y-121456881D01*
X142957176Y-121748177D01*
X142957243Y-121774200D01*
X142970129Y-121953757D01*
X143023612Y-122030690D01*
X143143941Y-122047000D01*
X143253959Y-122059261D01*
X143316752Y-122131649D01*
X143330706Y-122308471D01*
X143321948Y-122462496D01*
X143270242Y-122550406D01*
X143143941Y-122569941D01*
X142957176Y-122569941D01*
X142957176Y-124661706D01*
X142288926Y-124661706D01*
X142247470Y-122535238D01*
X142060706Y-122533913D01*
X141975113Y-122526333D01*
X141886816Y-122460420D01*
X141850531Y-122289794D01*
X141845882Y-122130670D01*
X141902149Y-122060166D01*
X142061168Y-122047000D01*
X142176436Y-122041611D01*
X142265858Y-121996507D01*
X142271343Y-121878912D01*
X142210956Y-121749086D01*
X142042029Y-121687185D01*
X141928728Y-121664181D01*
X141853451Y-121586900D01*
X141836588Y-121411447D01*
X141849285Y-121245783D01*
X141916566Y-121126005D01*
X142068078Y-121086899D01*
X142332865Y-121110875D01*
G37*
G36*
X143724121Y-121981004D02*
G01*
X143913888Y-122063255D01*
X144112518Y-122204151D01*
X144376588Y-122436008D01*
X144376588Y-122241504D01*
X144376775Y-122218286D01*
X144397708Y-122104791D01*
X144483169Y-122056864D01*
X144675411Y-122047000D01*
X144974235Y-122047000D01*
X144974235Y-124661706D01*
X144314739Y-124661706D01*
X144289634Y-123796422D01*
X144273918Y-123419557D01*
X144241249Y-123108319D01*
X144181837Y-122904866D01*
X144084098Y-122787012D01*
X143936450Y-122732570D01*
X143727309Y-122719353D01*
X143595661Y-122715076D01*
X143514450Y-122677107D01*
X143484446Y-122566882D01*
X143480117Y-122345824D01*
X143481821Y-122199096D01*
X143500394Y-122047654D01*
X143554943Y-121984774D01*
X143664283Y-121972294D01*
X143724121Y-121981004D01*
G37*
G36*
X153455876Y-121344900D02*
G01*
X153485532Y-121453688D01*
X153490706Y-121674308D01*
X153492448Y-121822934D01*
X153511250Y-121972914D01*
X153566535Y-122034853D01*
X153677470Y-122047000D01*
X153787488Y-122059261D01*
X153850281Y-122131649D01*
X153864235Y-122308471D01*
X153855477Y-122462496D01*
X153803772Y-122550406D01*
X153677470Y-122569941D01*
X153490706Y-122569941D01*
X153490706Y-123449789D01*
X153490567Y-123530782D01*
X153483535Y-123923465D01*
X153463774Y-124197709D01*
X153428370Y-124379712D01*
X153374411Y-124495672D01*
X153361429Y-124513561D01*
X153259650Y-124606044D01*
X153105695Y-124650336D01*
X152851469Y-124661706D01*
X152444823Y-124661706D01*
X152444823Y-124400236D01*
X152453581Y-124246210D01*
X152505287Y-124158300D01*
X152631588Y-124138765D01*
X152818353Y-124138765D01*
X152818353Y-122569941D01*
X152631588Y-122569941D01*
X152521570Y-122557680D01*
X152458777Y-122485293D01*
X152444823Y-122308471D01*
X152453581Y-122154446D01*
X152505287Y-122066536D01*
X152631588Y-122047000D01*
X152678015Y-122045942D01*
X152771130Y-122017934D01*
X152810334Y-121921336D01*
X152818353Y-121715858D01*
X152829956Y-121513792D01*
X152889006Y-121390612D01*
X153029464Y-121332675D01*
X153285264Y-121310522D01*
X153380536Y-121310402D01*
X153455876Y-121344900D01*
G37*
G36*
X157973058Y-122420530D02*
G01*
X159467176Y-122420530D01*
X159467176Y-121150530D01*
X160217654Y-121150530D01*
X160206597Y-122906118D01*
X160195539Y-124661706D01*
X159467176Y-124661706D01*
X159467176Y-123092883D01*
X157973058Y-123092883D01*
X157973058Y-124661706D01*
X157226000Y-124661706D01*
X157226000Y-121150530D01*
X157973058Y-121150530D01*
X157973058Y-122420530D01*
G37*
G36*
X136136010Y-123517593D02*
G01*
X136057832Y-123904332D01*
X135866454Y-124282911D01*
X135564883Y-124568070D01*
X135503683Y-124605595D01*
X135163697Y-124719630D01*
X134785133Y-124726609D01*
X134410595Y-124635717D01*
X134082683Y-124456139D01*
X133844000Y-124197059D01*
X133823507Y-124162028D01*
X133749568Y-123999183D01*
X133739280Y-123901249D01*
X133757349Y-123886652D01*
X133887933Y-123853272D01*
X134090968Y-123839941D01*
X134179442Y-123842182D01*
X134380990Y-123883472D01*
X134498074Y-123989353D01*
X134516385Y-124014744D01*
X134683703Y-124119500D01*
X134908733Y-124146595D01*
X135132390Y-124097261D01*
X135295587Y-123972731D01*
X135370415Y-123834558D01*
X135411882Y-123673907D01*
X135411203Y-123657182D01*
X135388990Y-123605143D01*
X135316922Y-123571363D01*
X135170117Y-123551996D01*
X134923692Y-123543196D01*
X134552764Y-123541118D01*
X133693647Y-123541118D01*
X133693647Y-123220771D01*
X133719531Y-122975404D01*
X133728622Y-122948807D01*
X134440706Y-122948807D01*
X134452961Y-123019416D01*
X134516063Y-123066710D01*
X134662922Y-123087959D01*
X134926294Y-123092883D01*
X135041578Y-123091758D01*
X135283943Y-123071397D01*
X135397400Y-123014656D01*
X135396448Y-122907520D01*
X135295587Y-122735976D01*
X135271011Y-122704624D01*
X135091985Y-122589487D01*
X134874485Y-122567528D01*
X134663467Y-122627557D01*
X134503889Y-122758381D01*
X134440706Y-122948807D01*
X133728622Y-122948807D01*
X133841394Y-122618877D01*
X134040133Y-122314005D01*
X134290128Y-122108557D01*
X134499220Y-122030254D01*
X134842733Y-121978617D01*
X135189361Y-121993688D01*
X135471621Y-122077255D01*
X135756492Y-122281426D01*
X135998425Y-122614595D01*
X136121957Y-123014656D01*
X136127139Y-123031437D01*
X136136010Y-123517593D01*
G37*
G36*
X137952066Y-122004707D02*
G01*
X138248844Y-122106403D01*
X138434467Y-122242059D01*
X138655052Y-122532898D01*
X138793479Y-122892920D01*
X138849709Y-123289823D01*
X138823703Y-123691301D01*
X138715420Y-124065050D01*
X138524823Y-124378768D01*
X138251871Y-124600149D01*
X138009610Y-124696596D01*
X137619681Y-124743683D01*
X137242982Y-124674637D01*
X136909485Y-124501531D01*
X136649163Y-124236433D01*
X136491986Y-123891414D01*
X136472549Y-123803818D01*
X136484847Y-123725451D01*
X136578466Y-123695403D01*
X136787444Y-123690530D01*
X136807618Y-123690574D01*
X137022033Y-123704779D01*
X137141961Y-123759310D01*
X137217762Y-123875858D01*
X137263272Y-123954373D01*
X137440138Y-124096393D01*
X137655767Y-124130588D01*
X137862776Y-124056975D01*
X138013780Y-123875570D01*
X138043044Y-123796946D01*
X138091740Y-123525538D01*
X138096707Y-123217309D01*
X138059616Y-122932633D01*
X137982137Y-122731889D01*
X137968257Y-122713582D01*
X137796492Y-122599652D01*
X137580230Y-122574220D01*
X137376702Y-122633920D01*
X137243138Y-122775383D01*
X137241386Y-122779340D01*
X137168710Y-122882793D01*
X137041785Y-122931369D01*
X136813579Y-122943471D01*
X136695419Y-122941204D01*
X136524813Y-122926874D01*
X136457764Y-122903718D01*
X136486767Y-122783999D01*
X136584814Y-122579081D01*
X136720708Y-122365155D01*
X136861432Y-122199799D01*
X136967521Y-122123802D01*
X137257530Y-122017033D01*
X137603670Y-121976126D01*
X137952066Y-122004707D01*
G37*
G36*
X141597991Y-124167128D02*
G01*
X141535099Y-124347829D01*
X141394099Y-124518041D01*
X141228980Y-124643631D01*
X140919499Y-124740549D01*
X140579778Y-124710275D01*
X140240836Y-124551899D01*
X140149608Y-124490701D01*
X140027145Y-124420359D01*
X139977969Y-124429825D01*
X139968941Y-124514546D01*
X139967034Y-124550633D01*
X139929103Y-124621663D01*
X139814649Y-124654026D01*
X139587419Y-124661706D01*
X139468560Y-124660682D01*
X139305381Y-124647074D01*
X139247588Y-124607895D01*
X139265177Y-124530971D01*
X139270104Y-124517121D01*
X139295635Y-124369500D01*
X139322125Y-124111319D01*
X139346716Y-123774685D01*
X139365852Y-123405230D01*
X140043647Y-123405230D01*
X140043647Y-123657028D01*
X140068439Y-123833670D01*
X140207145Y-124061149D01*
X140304914Y-124135813D01*
X140525192Y-124213017D01*
X140730096Y-124187118D01*
X140881209Y-124068304D01*
X140940117Y-123866762D01*
X140939902Y-123846356D01*
X140919802Y-123731975D01*
X140845293Y-123650520D01*
X140685747Y-123580898D01*
X140410534Y-123502013D01*
X140043647Y-123405230D01*
X139365852Y-123405230D01*
X139366552Y-123391706D01*
X139370409Y-123304674D01*
X139392057Y-122933370D01*
X139418499Y-122618547D01*
X139446743Y-122391161D01*
X139473796Y-122282172D01*
X139593535Y-122172224D01*
X139842182Y-122064688D01*
X140159399Y-121996765D01*
X140501810Y-121973781D01*
X140826037Y-122001059D01*
X141088704Y-122083926D01*
X141281843Y-122215587D01*
X141468770Y-122446704D01*
X141537764Y-122698623D01*
X141536964Y-122732369D01*
X141508445Y-122821461D01*
X141409809Y-122860268D01*
X141201588Y-122868765D01*
X141069768Y-122864873D01*
X140912480Y-122832064D01*
X140865411Y-122759335D01*
X140829471Y-122661926D01*
X140689740Y-122559676D01*
X140492569Y-122504516D01*
X140289804Y-122508800D01*
X140133294Y-122584883D01*
X140104722Y-122616005D01*
X140039126Y-122775911D01*
X140114509Y-122913976D01*
X140323794Y-123014249D01*
X140361990Y-123024536D01*
X140578844Y-123072673D01*
X140737076Y-123092466D01*
X140888286Y-123116527D01*
X141129913Y-123203364D01*
X141359254Y-123324370D01*
X141509056Y-123448528D01*
X141537872Y-123502012D01*
X141588836Y-123696736D01*
X141603751Y-123866762D01*
X141610094Y-123939070D01*
X141597991Y-124167128D01*
G37*
G36*
X146318941Y-122943471D02*
G01*
X146319045Y-123044269D01*
X146322985Y-123401574D01*
X146335705Y-123645473D01*
X146361387Y-123805227D01*
X146404209Y-123910100D01*
X146468353Y-123989353D01*
X146520926Y-124033388D01*
X146729580Y-124121490D01*
X146953194Y-124128734D01*
X147125764Y-124049118D01*
X147149554Y-124006490D01*
X147186317Y-123815687D01*
X147208181Y-123482289D01*
X147215411Y-123003235D01*
X147215411Y-122047000D01*
X147962470Y-122047000D01*
X147962354Y-123036853D01*
X147959582Y-123330818D01*
X147937194Y-123782137D01*
X147887384Y-124117615D01*
X147804234Y-124358440D01*
X147681824Y-124525802D01*
X147514235Y-124640889D01*
X147330665Y-124706999D01*
X146971627Y-124718767D01*
X146596207Y-124595053D01*
X146448365Y-124525598D01*
X146346484Y-124504573D01*
X146318941Y-124557701D01*
X146301762Y-124602258D01*
X146186692Y-124647816D01*
X145945411Y-124661706D01*
X145571882Y-124661706D01*
X145571882Y-122047000D01*
X146318941Y-122047000D01*
X146318941Y-122943471D01*
G37*
G36*
X150093632Y-122053027D02*
G01*
X150382083Y-122201520D01*
X150579879Y-122425580D01*
X150602999Y-122473609D01*
X150665232Y-122757028D01*
X150631505Y-123045282D01*
X150507278Y-123274530D01*
X150431077Y-123345886D01*
X150307408Y-123425171D01*
X150128262Y-123500222D01*
X149863491Y-123583149D01*
X149482946Y-123686067D01*
X149321003Y-123742252D01*
X149155174Y-123858082D01*
X149112525Y-123989738D01*
X149205330Y-124118118D01*
X149208896Y-124120699D01*
X149449163Y-124208904D01*
X149713218Y-124175438D01*
X149948968Y-124026706D01*
X150008646Y-123971970D01*
X150200510Y-123868699D01*
X150463298Y-123839941D01*
X150790864Y-123839941D01*
X150724511Y-124071299D01*
X150661905Y-124246415D01*
X150500919Y-124474007D01*
X150241029Y-124632876D01*
X150080453Y-124684026D01*
X149732576Y-124727680D01*
X149347151Y-124715524D01*
X148988207Y-124646844D01*
X148933992Y-124628661D01*
X148653117Y-124450563D01*
X148474066Y-124173469D01*
X148410985Y-123817698D01*
X148412019Y-123780458D01*
X148496928Y-123494330D01*
X148699317Y-123268600D01*
X148992652Y-123134438D01*
X149302867Y-123058131D01*
X149626861Y-122965527D01*
X149835212Y-122883320D01*
X149946556Y-122803658D01*
X149979529Y-122718690D01*
X149963817Y-122647813D01*
X149852201Y-122546718D01*
X149672681Y-122503392D01*
X149472093Y-122517785D01*
X149297275Y-122589846D01*
X149195062Y-122719527D01*
X149150906Y-122800330D01*
X149036188Y-122854463D01*
X148816554Y-122868765D01*
X148623375Y-122855828D01*
X148501631Y-122792749D01*
X148495577Y-122657079D01*
X148594179Y-122426893D01*
X148772996Y-122214240D01*
X149054207Y-122060708D01*
X149392708Y-121982646D01*
X149751512Y-121980077D01*
X150093632Y-122053027D01*
G37*
G36*
X156521413Y-124108699D02*
G01*
X156300519Y-124418479D01*
X155993353Y-124635684D01*
X155832306Y-124686936D01*
X155518841Y-124721457D01*
X155176285Y-124706057D01*
X154862510Y-124644748D01*
X154635391Y-124541542D01*
X154522581Y-124453350D01*
X154321995Y-124252903D01*
X154200966Y-124030823D01*
X154141526Y-123745258D01*
X154125706Y-123354353D01*
X154128004Y-123194504D01*
X154792663Y-123194504D01*
X154792773Y-123497380D01*
X154857443Y-123778976D01*
X154988990Y-123993520D01*
X155094521Y-124067791D01*
X155329855Y-124132312D01*
X155576624Y-124116311D01*
X155767567Y-124017701D01*
X155784850Y-123998555D01*
X155886944Y-123811453D01*
X155960503Y-123564688D01*
X155981268Y-123335677D01*
X155975626Y-123248040D01*
X155965338Y-123069616D01*
X155940201Y-122941483D01*
X155804001Y-122737192D01*
X155585320Y-122607635D01*
X155323341Y-122571098D01*
X155057251Y-122645866D01*
X154976845Y-122708014D01*
X154854793Y-122916124D01*
X154792663Y-123194504D01*
X154128004Y-123194504D01*
X154128386Y-123167968D01*
X154160914Y-122828717D01*
X154244928Y-122576279D01*
X154398592Y-122368612D01*
X154640064Y-122163675D01*
X154665626Y-122146092D01*
X154915281Y-122049057D01*
X155243587Y-122002265D01*
X155596100Y-122005724D01*
X155918373Y-122059444D01*
X156155963Y-122163433D01*
X156260837Y-122249929D01*
X156501716Y-122560261D01*
X156646186Y-122932125D01*
X156696274Y-123334701D01*
X156696172Y-123335677D01*
X156654007Y-123737166D01*
X156521413Y-124108699D01*
G37*
%TD*%
M02*
