%TF.GenerationSoftware,KiCad,Pcbnew,(5.99.0-11336-g5116fa6d12)*%
%TF.CreationDate,2021-08-09T23:44:28+02:00*%
%TF.ProjectId,CautionHot_Sign,43617574-696f-46e4-986f-745f5369676e,rev?*%
%TF.SameCoordinates,Original*%
%TF.FileFunction,Legend,Top*%
%TF.FilePolarity,Positive*%
%FSLAX46Y46*%
G04 Gerber Fmt 4.6, Leading zero omitted, Abs format (unit mm)*
G04 Created by KiCad (PCBNEW (5.99.0-11336-g5116fa6d12)) date 2021-08-09 23:44:28*
%MOMM*%
%LPD*%
G01*
G04 APERTURE LIST*
G04 APERTURE END LIST*
%TO.C,G\u002A\u002A\u002A*%
G36*
X149985153Y-95347028D02*
G01*
X150135792Y-95462350D01*
X150268462Y-95572630D01*
X150445526Y-95732674D01*
X150521673Y-95835426D01*
X150514705Y-95914309D01*
X150477378Y-95964836D01*
X150225339Y-96350484D01*
X150041160Y-96834822D01*
X149930130Y-97380859D01*
X149897538Y-97951606D01*
X149948672Y-98510073D01*
X150054096Y-98925123D01*
X150171128Y-99204120D01*
X150342548Y-99540355D01*
X150535282Y-99869931D01*
X150575587Y-99932648D01*
X150872411Y-100413438D01*
X151086174Y-100834837D01*
X151237198Y-101245322D01*
X151345807Y-101693371D01*
X151370998Y-101829942D01*
X151426370Y-102231444D01*
X151436640Y-102592154D01*
X151398745Y-102966725D01*
X151309620Y-103409810D01*
X151274155Y-103557294D01*
X151198032Y-103797917D01*
X151082393Y-104086872D01*
X150945556Y-104386264D01*
X150805837Y-104658198D01*
X150681554Y-104864781D01*
X150592698Y-104967114D01*
X150505781Y-104946472D01*
X150347042Y-104855410D01*
X150248402Y-104786145D01*
X150073789Y-104654558D01*
X149955951Y-104563157D01*
X149930960Y-104542156D01*
X149951665Y-104468894D01*
X150033735Y-104305107D01*
X150153933Y-104095532D01*
X150413051Y-103531246D01*
X150547210Y-102901473D01*
X150558860Y-102194583D01*
X150557729Y-102177651D01*
X150514348Y-101800861D01*
X150430141Y-101454169D01*
X150291027Y-101102331D01*
X150082921Y-100710098D01*
X149791742Y-100242225D01*
X149772919Y-100213416D01*
X149380794Y-99491564D01*
X149132693Y-98748410D01*
X149029861Y-97992571D01*
X149073541Y-97232662D01*
X149242847Y-96541356D01*
X149339507Y-96291947D01*
X149466325Y-96014816D01*
X149605192Y-95743658D01*
X149737996Y-95512167D01*
X149846627Y-95354038D01*
X149908831Y-95302294D01*
X149985153Y-95347028D01*
G37*
G36*
X147149805Y-95442214D02*
G01*
X147275444Y-95532907D01*
X147449352Y-95671986D01*
X147554542Y-95778100D01*
X147570385Y-95815426D01*
X147327705Y-96289239D01*
X147155606Y-96673306D01*
X147041653Y-97002109D01*
X146973415Y-97310131D01*
X146944497Y-97551326D01*
X146946365Y-98182317D01*
X147067325Y-98786995D01*
X147314974Y-99390931D01*
X147663647Y-99971412D01*
X148073580Y-100690504D01*
X148342930Y-101432941D01*
X148471460Y-102186253D01*
X148458930Y-102937972D01*
X148305103Y-103675628D01*
X148009740Y-104386752D01*
X147756022Y-104807988D01*
X147616663Y-105012800D01*
X147300709Y-104780444D01*
X147127502Y-104642127D01*
X147022584Y-104536887D01*
X147006701Y-104500927D01*
X147048744Y-104415505D01*
X147139387Y-104233719D01*
X147260110Y-103992694D01*
X147276993Y-103959055D01*
X147530921Y-103296125D01*
X147637916Y-102615305D01*
X147596755Y-101924465D01*
X147594952Y-101913765D01*
X147536773Y-101641431D01*
X147450110Y-101372710D01*
X147322192Y-101080275D01*
X147140250Y-100736797D01*
X146891515Y-100314948D01*
X146712139Y-100024441D01*
X146377371Y-99351035D01*
X146173546Y-98627955D01*
X146101676Y-97879298D01*
X146162771Y-97129158D01*
X146357844Y-96401632D01*
X146542354Y-95980621D01*
X146705285Y-95665920D01*
X146823563Y-95469344D01*
X146921122Y-95376278D01*
X147021892Y-95372107D01*
X147149805Y-95442214D01*
G37*
G36*
X144340128Y-95535075D02*
G01*
X144550424Y-95693672D01*
X144650056Y-95799302D01*
X144654046Y-95879790D01*
X144577414Y-95962961D01*
X144573069Y-95966584D01*
X144490845Y-96075070D01*
X144375110Y-96276436D01*
X144255569Y-96517349D01*
X144160832Y-96734689D01*
X144098774Y-96923872D01*
X144062581Y-97126869D01*
X144045438Y-97385648D01*
X144040528Y-97742179D01*
X144040412Y-97842294D01*
X144043703Y-98229535D01*
X144057821Y-98508342D01*
X144089135Y-98719625D01*
X144144013Y-98904296D01*
X144228822Y-99103267D01*
X144240638Y-99128607D01*
X144392417Y-99425875D01*
X144565190Y-99726385D01*
X144664400Y-99880701D01*
X145093558Y-100618843D01*
X145380963Y-101383973D01*
X145467000Y-101746703D01*
X145546763Y-102487388D01*
X145485025Y-103199052D01*
X145279123Y-103900724D01*
X145114366Y-104267626D01*
X144942211Y-104601688D01*
X144813608Y-104815465D01*
X144710508Y-104924799D01*
X144614864Y-104945526D01*
X144508627Y-104893486D01*
X144451294Y-104849525D01*
X144268367Y-104706136D01*
X144120259Y-104596694D01*
X144022183Y-104509628D01*
X144042682Y-104425919D01*
X144098093Y-104360519D01*
X144193079Y-104222741D01*
X144317594Y-103999778D01*
X144425988Y-103779386D01*
X144533678Y-103516316D01*
X144601568Y-103259830D01*
X144640755Y-102954991D01*
X144659531Y-102623471D01*
X144657299Y-102121240D01*
X144599053Y-101684026D01*
X144471860Y-101269272D01*
X144262787Y-100834421D01*
X143969637Y-100353340D01*
X143658932Y-99840243D01*
X143438197Y-99377366D01*
X143287438Y-98913777D01*
X143186662Y-98398544D01*
X143177687Y-98335938D01*
X143149971Y-97612382D01*
X143259434Y-96881693D01*
X143498975Y-96175561D01*
X143779578Y-95649498D01*
X144004843Y-95294292D01*
X144340128Y-95535075D01*
G37*
G36*
X153266589Y-107031118D02*
G01*
X141313647Y-107031118D01*
X141313647Y-105761118D01*
X153266589Y-105761118D01*
X153266589Y-107031118D01*
G37*
G36*
X133149955Y-107537645D02*
G01*
X133441596Y-107031118D01*
X133736596Y-106521915D01*
X133997684Y-106071214D01*
X134238784Y-105654966D01*
X134473823Y-105249126D01*
X134716723Y-104829645D01*
X134981411Y-104372476D01*
X135281811Y-103853571D01*
X135631848Y-103248884D01*
X135961438Y-102679500D01*
X136189638Y-102285062D01*
X136445048Y-101843273D01*
X136686243Y-101425796D01*
X136781916Y-101260088D01*
X136896085Y-101062524D01*
X137076522Y-100750590D01*
X137314593Y-100339199D01*
X137601666Y-99843263D01*
X137929107Y-99277696D01*
X138288282Y-98657408D01*
X138670560Y-97997313D01*
X139067306Y-97312323D01*
X139236328Y-97020530D01*
X139779046Y-96083604D01*
X140257960Y-95256751D01*
X140684177Y-94520766D01*
X141068803Y-93856444D01*
X141422945Y-93244580D01*
X141757707Y-92665971D01*
X142084197Y-92101412D01*
X142413520Y-91531698D01*
X142756783Y-90937625D01*
X143125092Y-90299988D01*
X143529553Y-89599583D01*
X143981272Y-88817206D01*
X144485517Y-87943765D01*
X144855526Y-87305037D01*
X145207543Y-86701608D01*
X145533676Y-86146714D01*
X145826032Y-85653586D01*
X146076721Y-85235459D01*
X146277849Y-84905564D01*
X146421526Y-84677136D01*
X146499860Y-84563408D01*
X146504826Y-84557744D01*
X146732495Y-84411660D01*
X147034488Y-84338439D01*
X147349641Y-84347960D01*
X147513287Y-84394842D01*
X147577097Y-84424653D01*
X147640269Y-84466228D01*
X147709710Y-84530339D01*
X147792330Y-84627756D01*
X147895038Y-84769248D01*
X148024742Y-84965585D01*
X148188350Y-85227538D01*
X148392773Y-85565876D01*
X148644918Y-85991370D01*
X148951695Y-86514788D01*
X149320013Y-87146903D01*
X149717995Y-87831706D01*
X150046368Y-88396919D01*
X150368614Y-88951324D01*
X150672580Y-89474038D01*
X150946120Y-89944178D01*
X151177083Y-90340860D01*
X151353320Y-90643201D01*
X151434731Y-90782588D01*
X151531216Y-90947902D01*
X151696616Y-91231733D01*
X151924738Y-91623436D01*
X152209386Y-92112368D01*
X152544367Y-92687886D01*
X152923485Y-93339345D01*
X153340548Y-94056101D01*
X153789361Y-94827512D01*
X154263728Y-95642932D01*
X154757457Y-96491718D01*
X155173661Y-97207294D01*
X155681163Y-98079800D01*
X156176196Y-98930730D01*
X156652364Y-99749094D01*
X157103267Y-100523903D01*
X157522509Y-101244167D01*
X157903691Y-101898897D01*
X158240416Y-102477105D01*
X158526286Y-102967800D01*
X158754904Y-103359993D01*
X158919870Y-103642696D01*
X159000996Y-103781412D01*
X159245154Y-104198047D01*
X159461163Y-104566969D01*
X159663770Y-104913456D01*
X159867725Y-105262788D01*
X160087773Y-105640243D01*
X160338663Y-106071099D01*
X160635142Y-106580636D01*
X160991233Y-107192886D01*
X161307329Y-107740765D01*
X161551748Y-108178862D01*
X161730625Y-108524946D01*
X161850094Y-108796787D01*
X161916287Y-109012155D01*
X161935338Y-109188819D01*
X161913381Y-109344549D01*
X161856550Y-109497114D01*
X161815450Y-109580713D01*
X161791552Y-109633234D01*
X161772316Y-109681404D01*
X161751479Y-109725408D01*
X161722775Y-109765434D01*
X161679941Y-109801667D01*
X161616712Y-109834293D01*
X161526825Y-109863499D01*
X161404016Y-109889471D01*
X161242020Y-109912396D01*
X161034573Y-109932459D01*
X160775412Y-109949847D01*
X160458272Y-109964745D01*
X160076889Y-109977342D01*
X159624998Y-109987822D01*
X159096337Y-109996371D01*
X158484640Y-110003177D01*
X157783644Y-110008425D01*
X156987085Y-110012302D01*
X156088698Y-110014994D01*
X155082219Y-110016687D01*
X153961385Y-110017567D01*
X152719930Y-110017821D01*
X151351592Y-110017635D01*
X149850106Y-110017195D01*
X148209208Y-110016687D01*
X147161782Y-110016429D01*
X145425707Y-110015930D01*
X143833071Y-110015157D01*
X142377901Y-110014066D01*
X141054224Y-110012613D01*
X139856067Y-110010752D01*
X138777456Y-110008440D01*
X137812421Y-110005631D01*
X136954987Y-110002282D01*
X136199181Y-109998347D01*
X135539031Y-109993782D01*
X134968564Y-109988543D01*
X134481806Y-109982584D01*
X134072786Y-109975862D01*
X133735530Y-109968332D01*
X133464065Y-109959949D01*
X133252419Y-109950668D01*
X133094618Y-109940446D01*
X132984690Y-109929238D01*
X132916661Y-109916998D01*
X132895394Y-109910009D01*
X132647699Y-109724972D01*
X132484584Y-109438316D01*
X132424110Y-109082209D01*
X132424071Y-109070563D01*
X132437971Y-108958129D01*
X132484485Y-108808957D01*
X132571276Y-108607683D01*
X132706008Y-108338948D01*
X132766937Y-108226412D01*
X134818436Y-108226412D01*
X147150799Y-108226412D01*
X148765568Y-108226269D01*
X150237204Y-108225804D01*
X151571985Y-108224965D01*
X152776189Y-108223698D01*
X153856094Y-108221951D01*
X154817978Y-108219670D01*
X155668119Y-108216804D01*
X156412797Y-108213298D01*
X157058287Y-108209101D01*
X157610870Y-108204158D01*
X158076823Y-108198418D01*
X158462424Y-108191828D01*
X158773952Y-108184334D01*
X159017684Y-108175883D01*
X159199898Y-108166423D01*
X159326874Y-108155901D01*
X159404889Y-108144264D01*
X159440220Y-108131459D01*
X159443418Y-108122840D01*
X159401076Y-108045345D01*
X159288439Y-107847417D01*
X159110502Y-107537675D01*
X158872263Y-107124739D01*
X158578719Y-106617227D01*
X158234868Y-106023761D01*
X157845706Y-105352960D01*
X157416231Y-104613443D01*
X156951440Y-103813830D01*
X156456330Y-102962741D01*
X155935898Y-102068795D01*
X155469716Y-101268575D01*
X154873596Y-100245502D01*
X154258339Y-99189347D01*
X153633267Y-98116125D01*
X153007702Y-97041851D01*
X152390966Y-95982540D01*
X151792382Y-94954207D01*
X151221271Y-93972867D01*
X150686957Y-93054536D01*
X150198760Y-92215228D01*
X149766004Y-91470959D01*
X149398009Y-90837744D01*
X149356909Y-90766993D01*
X148959280Y-90083730D01*
X148583532Y-89440488D01*
X148236407Y-88848650D01*
X147924649Y-88319597D01*
X147655000Y-87864709D01*
X147434203Y-87495368D01*
X147269001Y-87222955D01*
X147166138Y-87058851D01*
X147132772Y-87013023D01*
X147119927Y-87019529D01*
X147096969Y-87045432D01*
X147059394Y-87098414D01*
X147002698Y-87186158D01*
X146922376Y-87316345D01*
X146813924Y-87496657D01*
X146672838Y-87734777D01*
X146494613Y-88038385D01*
X146274746Y-88415164D01*
X146008732Y-88872796D01*
X145692066Y-89418963D01*
X145320244Y-90061347D01*
X144888763Y-90807630D01*
X144393117Y-91665493D01*
X143828803Y-92642619D01*
X143630288Y-92986412D01*
X143228150Y-93682746D01*
X142827507Y-94376270D01*
X142438658Y-95049174D01*
X142071901Y-95683643D01*
X141737534Y-96261867D01*
X141445857Y-96766032D01*
X141207167Y-97178326D01*
X141031763Y-97480937D01*
X141017149Y-97506118D01*
X140858724Y-97779382D01*
X140634715Y-98166256D01*
X140354247Y-98650959D01*
X140026445Y-99217709D01*
X139660436Y-99850724D01*
X139265344Y-100534222D01*
X138850295Y-101252422D01*
X138424414Y-101989541D01*
X138101385Y-102548765D01*
X137678872Y-103280233D01*
X137264664Y-103997220D01*
X136867256Y-104685032D01*
X136495141Y-105328971D01*
X136156814Y-105914342D01*
X135860767Y-106426449D01*
X135615495Y-106850595D01*
X135429491Y-107172085D01*
X135327255Y-107348618D01*
X134818436Y-108226412D01*
X132766937Y-108226412D01*
X132896347Y-107987389D01*
X133149955Y-107537645D01*
G37*
G36*
X151268201Y-113356692D02*
G01*
X151532538Y-113368329D01*
X151753794Y-113375368D01*
X151996589Y-113381118D01*
X151996589Y-114277588D01*
X151025412Y-114277588D01*
X151025407Y-113810677D01*
X151025401Y-113343765D01*
X151268201Y-113356692D01*
G37*
G36*
X155570886Y-114660421D02*
G01*
X155793477Y-114776732D01*
X155940432Y-114897016D01*
X156052704Y-115028940D01*
X156134868Y-115193677D01*
X156191500Y-115412398D01*
X156227176Y-115706275D01*
X156246471Y-116096479D01*
X156253960Y-116604182D01*
X156254708Y-116910971D01*
X156254824Y-118386412D01*
X156068059Y-118394416D01*
X155867468Y-118402468D01*
X155619161Y-118411773D01*
X155582471Y-118413093D01*
X155283647Y-118423765D01*
X155277504Y-117303177D01*
X155272321Y-116781510D01*
X155261912Y-116386239D01*
X155244245Y-116094382D01*
X155217287Y-115882956D01*
X155179007Y-115728980D01*
X155127793Y-115610257D01*
X154974630Y-115465739D01*
X154747470Y-115410490D01*
X154488842Y-115440258D01*
X154241271Y-115550788D01*
X154062307Y-115716810D01*
X154005004Y-115804827D01*
X153964143Y-115907776D01*
X153937105Y-116050800D01*
X153921268Y-116259041D01*
X153914011Y-116557642D01*
X153912713Y-116971748D01*
X153913178Y-117147465D01*
X153917360Y-118372777D01*
X153648003Y-118398271D01*
X153384046Y-118409408D01*
X153135853Y-118400355D01*
X152893059Y-118376945D01*
X152893059Y-114651118D01*
X153864236Y-114651118D01*
X153864236Y-115112635D01*
X154086455Y-114925649D01*
X154418548Y-114724335D01*
X154806057Y-114610460D01*
X155204872Y-114587873D01*
X155570886Y-114660421D01*
G37*
G36*
X151996589Y-118373663D02*
G01*
X151025099Y-118423765D01*
X151025255Y-116537441D01*
X151025412Y-114651118D01*
X151996589Y-114651118D01*
X151996589Y-118373663D01*
G37*
G36*
X149126646Y-114603036D02*
G01*
X149523830Y-114712485D01*
X149816638Y-114922114D01*
X149964672Y-115129123D01*
X150012709Y-115284889D01*
X150053402Y-115546638D01*
X150086290Y-115888419D01*
X150110916Y-116284277D01*
X150126819Y-116708260D01*
X150133540Y-117134414D01*
X150130621Y-117536786D01*
X150117602Y-117889424D01*
X150094023Y-118166374D01*
X150059427Y-118341682D01*
X150022389Y-118391392D01*
X149882755Y-118395184D01*
X149656628Y-118399345D01*
X149512618Y-118401414D01*
X149120412Y-118406456D01*
X149099948Y-117073316D01*
X149091508Y-116593576D01*
X149081233Y-116240057D01*
X149066329Y-115989572D01*
X149044005Y-115818934D01*
X149011468Y-115704954D01*
X148965927Y-115624447D01*
X148918837Y-115569177D01*
X148688919Y-115421461D01*
X148420352Y-115406576D01*
X148140096Y-115523120D01*
X148019679Y-115615984D01*
X147775706Y-115833792D01*
X147738353Y-117128778D01*
X147701000Y-118423765D01*
X147319181Y-118427227D01*
X147082890Y-118423981D01*
X146904851Y-118411857D01*
X146852269Y-118402325D01*
X146823218Y-118340099D01*
X146800668Y-118169163D01*
X146784222Y-117880698D01*
X146773482Y-117465884D01*
X146768052Y-116915903D01*
X146767177Y-116512539D01*
X146767177Y-114651118D01*
X147738353Y-114651118D01*
X147738353Y-115114831D01*
X147998227Y-114886659D01*
X148337992Y-114673781D01*
X148738950Y-114585495D01*
X149126646Y-114603036D01*
G37*
G36*
X146108605Y-114596292D02*
G01*
X146163847Y-114685288D01*
X146177000Y-114837883D01*
X146183437Y-115156423D01*
X146183193Y-115401391D01*
X146176960Y-115528912D01*
X146105223Y-115565148D01*
X145931284Y-115594207D01*
X145814636Y-115603340D01*
X145558006Y-115638190D01*
X145376304Y-115730694D01*
X145254383Y-115847313D01*
X145048942Y-116072887D01*
X145048942Y-117229649D01*
X145048320Y-117667824D01*
X145044332Y-117978670D01*
X145033793Y-118184270D01*
X145013516Y-118306708D01*
X144980316Y-118368066D01*
X144931009Y-118390428D01*
X144880853Y-118394928D01*
X144486926Y-118411838D01*
X144226697Y-118415288D01*
X144085050Y-118405155D01*
X144047368Y-118388219D01*
X144042555Y-118305717D01*
X144038765Y-118094592D01*
X144036126Y-117775631D01*
X144034766Y-117369620D01*
X144034814Y-116897345D01*
X144035826Y-116518765D01*
X144042648Y-114688471D01*
X144508442Y-114666230D01*
X144974236Y-114643988D01*
X144974236Y-115260229D01*
X145169899Y-115027696D01*
X145454352Y-114766555D01*
X145765403Y-114610789D01*
X145979055Y-114576412D01*
X146108605Y-114596292D01*
G37*
G36*
X139170816Y-113366358D02*
G01*
X139409172Y-113372052D01*
X139603347Y-113382486D01*
X139705104Y-113396955D01*
X139709894Y-113399947D01*
X139693441Y-113473440D01*
X139640125Y-113674047D01*
X139554534Y-113985333D01*
X139441254Y-114390865D01*
X139304871Y-114874209D01*
X139149973Y-115418930D01*
X139006261Y-115921118D01*
X138288059Y-118423765D01*
X137810702Y-118407094D01*
X137559471Y-118393833D01*
X137374914Y-118375677D01*
X137301214Y-118358293D01*
X137278190Y-118279185D01*
X137230425Y-118073740D01*
X137162278Y-117762169D01*
X137078107Y-117364685D01*
X136982273Y-116901501D01*
X136904094Y-116516859D01*
X136802362Y-116017276D01*
X136709068Y-115568075D01*
X136628555Y-115189448D01*
X136565166Y-114901585D01*
X136523242Y-114724678D01*
X136508383Y-114676834D01*
X136477747Y-114721444D01*
X136439165Y-114870356D01*
X136428132Y-114928762D01*
X136398384Y-115085962D01*
X136343700Y-115362938D01*
X136269414Y-115733149D01*
X136180859Y-116170060D01*
X136083369Y-116647130D01*
X136056031Y-116780236D01*
X135733460Y-118349059D01*
X135226949Y-118386412D01*
X134942464Y-118396607D01*
X134756442Y-118380567D01*
X134696280Y-118349059D01*
X134670597Y-118261873D01*
X134608640Y-118048220D01*
X134515352Y-117725247D01*
X134395677Y-117310100D01*
X134254560Y-116819927D01*
X134096943Y-116271874D01*
X133969317Y-115827736D01*
X133266512Y-113381118D01*
X134354224Y-113381118D01*
X134744315Y-115005971D01*
X134859674Y-115481625D01*
X134966032Y-115911049D01*
X135057696Y-116271990D01*
X135128976Y-116542190D01*
X135174180Y-116699397D01*
X135184596Y-116727537D01*
X135212880Y-116685771D01*
X135265124Y-116516268D01*
X135336635Y-116237927D01*
X135422719Y-115869650D01*
X135518684Y-115430338D01*
X135580900Y-115131490D01*
X135680516Y-114649046D01*
X135771464Y-114217585D01*
X135849190Y-113857977D01*
X135909144Y-113591094D01*
X135946772Y-113437807D01*
X135956531Y-113409214D01*
X136052110Y-113385810D01*
X136247264Y-113374051D01*
X136493183Y-113373061D01*
X136741055Y-113381963D01*
X136942069Y-113399879D01*
X137047414Y-113425933D01*
X137050741Y-113428876D01*
X137081601Y-113518315D01*
X137135816Y-113732030D01*
X137208300Y-114047613D01*
X137293967Y-114442662D01*
X137387731Y-114894769D01*
X137421452Y-115062000D01*
X137516426Y-115532294D01*
X137603755Y-115956852D01*
X137678521Y-116312401D01*
X137735810Y-116575665D01*
X137770703Y-116723369D01*
X137776501Y-116742883D01*
X137804377Y-116705673D01*
X137860739Y-116541241D01*
X137940409Y-116267934D01*
X138038210Y-115904099D01*
X138148964Y-115468085D01*
X138229759Y-115136706D01*
X138346991Y-114651939D01*
X138453879Y-114217303D01*
X138545223Y-113853342D01*
X138615826Y-113580601D01*
X138660491Y-113419624D01*
X138673031Y-113384775D01*
X138754509Y-113372014D01*
X138936516Y-113366110D01*
X139170816Y-113366358D01*
G37*
G36*
X140054997Y-116701674D02*
G01*
X140276596Y-116475222D01*
X140610692Y-116306382D01*
X141071051Y-116183398D01*
X141343150Y-116136868D01*
X141762051Y-116049650D01*
X142035280Y-115933929D01*
X142163964Y-115789022D01*
X142160631Y-115642665D01*
X142028880Y-115446742D01*
X141794919Y-115343955D01*
X141560839Y-115323471D01*
X141282746Y-115368621D01*
X141067598Y-115488316D01*
X140951102Y-115658919D01*
X140940118Y-115734353D01*
X140907985Y-115796880D01*
X140793040Y-115831807D01*
X140567466Y-115845473D01*
X140448594Y-115846412D01*
X139957070Y-115846412D01*
X140007761Y-115603618D01*
X140153619Y-115197132D01*
X140402030Y-114893911D01*
X140756714Y-114691456D01*
X141221390Y-114587269D01*
X141545409Y-114570880D01*
X142072252Y-114598454D01*
X142476912Y-114686652D01*
X142776741Y-114842671D01*
X142989089Y-115073711D01*
X143058069Y-115198431D01*
X143104953Y-115324687D01*
X143138769Y-115491608D01*
X143161392Y-115723089D01*
X143174698Y-116043029D01*
X143180562Y-116475321D01*
X143181294Y-116768440D01*
X143185483Y-117254620D01*
X143197452Y-117648782D01*
X143216302Y-117934623D01*
X143241135Y-118095841D01*
X143256000Y-118124941D01*
X143324739Y-118233032D01*
X143330706Y-118278762D01*
X143295983Y-118337895D01*
X143174552Y-118371641D01*
X142940517Y-118385345D01*
X142809188Y-118386412D01*
X142534521Y-118382798D01*
X142373602Y-118364247D01*
X142290807Y-118319197D01*
X142250513Y-118236084D01*
X142241420Y-118202134D01*
X142195169Y-118017855D01*
X141898825Y-118256003D01*
X141708781Y-118391684D01*
X141525705Y-118468587D01*
X141289062Y-118506719D01*
X141103212Y-118518965D01*
X140794434Y-118523004D01*
X140578898Y-118491916D01*
X140402708Y-118416556D01*
X140364774Y-118393693D01*
X140104184Y-118158755D01*
X139950055Y-117839868D01*
X139894646Y-117420264D01*
X139894236Y-117374443D01*
X139903677Y-117280536D01*
X140865412Y-117280536D01*
X140923397Y-117546052D01*
X141082195Y-117717728D01*
X141319074Y-117785749D01*
X141611302Y-117740299D01*
X141771478Y-117671744D01*
X141987169Y-117483963D01*
X142140996Y-117198883D01*
X142208847Y-116863770D01*
X142210118Y-116811995D01*
X142194377Y-116652878D01*
X142134573Y-116611903D01*
X142088441Y-116624177D01*
X141944432Y-116669590D01*
X141723250Y-116729625D01*
X141621529Y-116755140D01*
X141263832Y-116857293D01*
X141033282Y-116964681D01*
X140907950Y-117092543D01*
X140865904Y-117256117D01*
X140865412Y-117280536D01*
X139903677Y-117280536D01*
X139932132Y-116997495D01*
X140054997Y-116701674D01*
G37*
G36*
X157035596Y-115726434D02*
G01*
X157225610Y-115286080D01*
X157394912Y-115051205D01*
X157686710Y-114788496D01*
X158020534Y-114636285D01*
X158435927Y-114578190D01*
X158540812Y-114576412D01*
X158822477Y-114604269D01*
X159093334Y-114677175D01*
X159314355Y-114779137D01*
X159446507Y-114894160D01*
X159467177Y-114956034D01*
X159524207Y-115022694D01*
X159541883Y-115024647D01*
X159598041Y-114960715D01*
X159616589Y-114837883D01*
X159626312Y-114733667D01*
X159679074Y-114677809D01*
X159810261Y-114655297D01*
X160055261Y-114651118D01*
X160056831Y-114651118D01*
X160346527Y-114667328D01*
X160502761Y-114714739D01*
X160526692Y-114744500D01*
X160534129Y-114841566D01*
X160539965Y-115067460D01*
X160544029Y-115401607D01*
X160546152Y-115823430D01*
X160546163Y-116312355D01*
X160543981Y-116833421D01*
X160539831Y-117432890D01*
X160534604Y-117902751D01*
X160526703Y-118262808D01*
X160514531Y-118532865D01*
X160496489Y-118732724D01*
X160470981Y-118882188D01*
X160436408Y-119001062D01*
X160391174Y-119109149D01*
X160354267Y-119185070D01*
X160142522Y-119493952D01*
X159850704Y-119713051D01*
X159460732Y-119851493D01*
X158954522Y-119918404D01*
X158894993Y-119921599D01*
X158581190Y-119927612D01*
X158297452Y-119917595D01*
X158099957Y-119893730D01*
X158085118Y-119890145D01*
X157695588Y-119738118D01*
X157382479Y-119519168D01*
X157169016Y-119255455D01*
X157078424Y-118969143D01*
X157076868Y-118928030D01*
X157087665Y-118838214D01*
X157142565Y-118787780D01*
X157274770Y-118765465D01*
X157517480Y-118760004D01*
X157572287Y-118759941D01*
X157852616Y-118767227D01*
X158031298Y-118797911D01*
X158155752Y-118865236D01*
X158241073Y-118946706D01*
X158383094Y-119065431D01*
X158558008Y-119120890D01*
X158794652Y-119133471D01*
X159141832Y-119089133D01*
X159375837Y-118949980D01*
X159505945Y-118706804D01*
X159541883Y-118392059D01*
X159541883Y-118017385D01*
X159269987Y-118201899D01*
X159048286Y-118321387D01*
X158801720Y-118376428D01*
X158565145Y-118386412D01*
X158155112Y-118358802D01*
X157839119Y-118265451D01*
X157570391Y-118090580D01*
X157499306Y-118026806D01*
X157222077Y-117668097D01*
X157035887Y-117224352D01*
X156941940Y-116729924D01*
X156941593Y-116374984D01*
X157985429Y-116374984D01*
X157994767Y-116835703D01*
X158085776Y-117176085D01*
X158264182Y-117404462D01*
X158535711Y-117529166D01*
X158799414Y-117559591D01*
X159090696Y-117502825D01*
X159233549Y-117408062D01*
X159406389Y-117194408D01*
X159504434Y-116926750D01*
X159540838Y-116565188D01*
X159541883Y-116472839D01*
X159493354Y-116069074D01*
X159360122Y-115748005D01*
X159160716Y-115522026D01*
X158913669Y-115403534D01*
X158637510Y-115404924D01*
X158350770Y-115538593D01*
X158257321Y-115613542D01*
X158130481Y-115738999D01*
X158054686Y-115864193D01*
X158013342Y-116035594D01*
X157989856Y-116299674D01*
X157985429Y-116374984D01*
X156941593Y-116374984D01*
X156941441Y-116219167D01*
X157035596Y-115726434D01*
G37*
G36*
X152215434Y-121126005D02*
G01*
X152282715Y-121245783D01*
X152295412Y-121411447D01*
X152278549Y-121586900D01*
X152203272Y-121664181D01*
X152089971Y-121687185D01*
X151921044Y-121749086D01*
X151860657Y-121878912D01*
X151866142Y-121996507D01*
X151955564Y-122041611D01*
X152070832Y-122047000D01*
X152229851Y-122060166D01*
X152286118Y-122130670D01*
X152281469Y-122289794D01*
X152245184Y-122460420D01*
X152156887Y-122526333D01*
X152071294Y-122533913D01*
X151884530Y-122535238D01*
X151843074Y-124661706D01*
X151174824Y-124661706D01*
X151174824Y-122569941D01*
X150988059Y-122569941D01*
X150861758Y-122550406D01*
X150810052Y-122462496D01*
X150801294Y-122308471D01*
X150815248Y-122131649D01*
X150878041Y-122059261D01*
X150988059Y-122047000D01*
X151108388Y-122030690D01*
X151161871Y-121953757D01*
X151174757Y-121774200D01*
X151174824Y-121748177D01*
X151225374Y-121456881D01*
X151384398Y-121256997D01*
X151662960Y-121137232D01*
X151799135Y-121110875D01*
X152063922Y-121086899D01*
X152215434Y-121126005D01*
G37*
G36*
X150577057Y-121984774D02*
G01*
X150631606Y-122047654D01*
X150650179Y-122199096D01*
X150651883Y-122345824D01*
X150647554Y-122566882D01*
X150617550Y-122677107D01*
X150536339Y-122715076D01*
X150404691Y-122719353D01*
X150195550Y-122732570D01*
X150047902Y-122787012D01*
X149950163Y-122904866D01*
X149890751Y-123108319D01*
X149858082Y-123419557D01*
X149842366Y-123796422D01*
X149817261Y-124661706D01*
X149157765Y-124661706D01*
X149157765Y-122047000D01*
X149456589Y-122047000D01*
X149648831Y-122056864D01*
X149734292Y-122104791D01*
X149755225Y-122218286D01*
X149755412Y-122241504D01*
X149755412Y-122436008D01*
X150019482Y-122204151D01*
X150218112Y-122063255D01*
X150407879Y-121981004D01*
X150467717Y-121972294D01*
X150577057Y-121984774D01*
G37*
G36*
X140846736Y-121310522D02*
G01*
X141102536Y-121332675D01*
X141242994Y-121390612D01*
X141302044Y-121513792D01*
X141313647Y-121715858D01*
X141321666Y-121921336D01*
X141360870Y-122017934D01*
X141453985Y-122045942D01*
X141500412Y-122047000D01*
X141626713Y-122066536D01*
X141678419Y-122154446D01*
X141687177Y-122308471D01*
X141673223Y-122485293D01*
X141610430Y-122557680D01*
X141500412Y-122569941D01*
X141313647Y-122569941D01*
X141313647Y-124138765D01*
X141500412Y-124138765D01*
X141626713Y-124158300D01*
X141678419Y-124246210D01*
X141687177Y-124400236D01*
X141687177Y-124661706D01*
X141280531Y-124661706D01*
X141026305Y-124650336D01*
X140872350Y-124606044D01*
X140770571Y-124513561D01*
X140757589Y-124495672D01*
X140703630Y-124379712D01*
X140668226Y-124197709D01*
X140648465Y-123923465D01*
X140641433Y-123530782D01*
X140641294Y-123449789D01*
X140641294Y-122569941D01*
X140454530Y-122569941D01*
X140328228Y-122550406D01*
X140276523Y-122462496D01*
X140267765Y-122308471D01*
X140281719Y-122131649D01*
X140344512Y-122059261D01*
X140454530Y-122047000D01*
X140565465Y-122034853D01*
X140620750Y-121972914D01*
X140639552Y-121822934D01*
X140641294Y-121674308D01*
X140646468Y-121453688D01*
X140676124Y-121344900D01*
X140751464Y-121310402D01*
X140846736Y-121310522D01*
G37*
G36*
X134664824Y-122420530D02*
G01*
X136158942Y-122420530D01*
X136158942Y-121150530D01*
X136906000Y-121150530D01*
X136906000Y-124661706D01*
X136158942Y-124661706D01*
X136158942Y-123092883D01*
X134664824Y-123092883D01*
X134664824Y-124661706D01*
X133936461Y-124661706D01*
X133925403Y-122906118D01*
X133914346Y-121150530D01*
X134664824Y-121150530D01*
X134664824Y-122420530D01*
G37*
G36*
X158375508Y-122281426D02*
G01*
X158660379Y-122077255D01*
X158942639Y-121993688D01*
X159289267Y-121978617D01*
X159632780Y-122030254D01*
X159841872Y-122108557D01*
X160091867Y-122314005D01*
X160290606Y-122618877D01*
X160412469Y-122975404D01*
X160438353Y-123220771D01*
X160438353Y-123541118D01*
X159579236Y-123541118D01*
X159208308Y-123543196D01*
X158961883Y-123551996D01*
X158815078Y-123571363D01*
X158743010Y-123605143D01*
X158720797Y-123657182D01*
X158720118Y-123673907D01*
X158761585Y-123834558D01*
X158836413Y-123972731D01*
X158999610Y-124097261D01*
X159223267Y-124146595D01*
X159448297Y-124119500D01*
X159615615Y-124014744D01*
X159633926Y-123989353D01*
X159751010Y-123883472D01*
X159952558Y-123842182D01*
X160041032Y-123839941D01*
X160244067Y-123853272D01*
X160374651Y-123886652D01*
X160392720Y-123901249D01*
X160382432Y-123999183D01*
X160308493Y-124162028D01*
X160288000Y-124197059D01*
X160049317Y-124456139D01*
X159721405Y-124635717D01*
X159346867Y-124726609D01*
X158968303Y-124719630D01*
X158628317Y-124605595D01*
X158567117Y-124568070D01*
X158265546Y-124282911D01*
X158074168Y-123904332D01*
X157995990Y-123517593D01*
X158004861Y-123031437D01*
X158010043Y-123014656D01*
X158734600Y-123014656D01*
X158848057Y-123071397D01*
X159090422Y-123091758D01*
X159205706Y-123092883D01*
X159469078Y-123087959D01*
X159615937Y-123066710D01*
X159679039Y-123019416D01*
X159691294Y-122948807D01*
X159628111Y-122758381D01*
X159468533Y-122627557D01*
X159257515Y-122567528D01*
X159040015Y-122589487D01*
X158860989Y-122704624D01*
X158836413Y-122735976D01*
X158735552Y-122907520D01*
X158734600Y-123014656D01*
X158010043Y-123014656D01*
X158133575Y-122614595D01*
X158375508Y-122281426D01*
G37*
G36*
X156874470Y-122017033D02*
G01*
X157164479Y-122123802D01*
X157270568Y-122199799D01*
X157411292Y-122365155D01*
X157547186Y-122579081D01*
X157645233Y-122783999D01*
X157674236Y-122903718D01*
X157607187Y-122926874D01*
X157436581Y-122941204D01*
X157318421Y-122943471D01*
X157090215Y-122931369D01*
X156963290Y-122882793D01*
X156890614Y-122779340D01*
X156888862Y-122775383D01*
X156755298Y-122633920D01*
X156551770Y-122574220D01*
X156335508Y-122599652D01*
X156163743Y-122713582D01*
X156149863Y-122731889D01*
X156072384Y-122932633D01*
X156035293Y-123217309D01*
X156040260Y-123525538D01*
X156088956Y-123796946D01*
X156118220Y-123875570D01*
X156269224Y-124056975D01*
X156476233Y-124130588D01*
X156691862Y-124096393D01*
X156868728Y-123954373D01*
X156914238Y-123875858D01*
X156990039Y-123759310D01*
X157109967Y-123704779D01*
X157324382Y-123690574D01*
X157344556Y-123690530D01*
X157553534Y-123695403D01*
X157647153Y-123725451D01*
X157659451Y-123803818D01*
X157640014Y-123891414D01*
X157482837Y-124236433D01*
X157222515Y-124501531D01*
X156889018Y-124674637D01*
X156512319Y-124743683D01*
X156122390Y-124696596D01*
X155880129Y-124600149D01*
X155607177Y-124378768D01*
X155416580Y-124065050D01*
X155308297Y-123691301D01*
X155282291Y-123289823D01*
X155338521Y-122892920D01*
X155476948Y-122532898D01*
X155697533Y-122242059D01*
X155883156Y-122106403D01*
X156179934Y-122004707D01*
X156528330Y-121976126D01*
X156874470Y-122017033D01*
G37*
G36*
X152594128Y-123502012D02*
G01*
X152622944Y-123448528D01*
X152772746Y-123324370D01*
X153002087Y-123203364D01*
X153243714Y-123116527D01*
X153394924Y-123092466D01*
X153553156Y-123072673D01*
X153770010Y-123024536D01*
X153808206Y-123014249D01*
X154017491Y-122913976D01*
X154092874Y-122775911D01*
X154027278Y-122616005D01*
X153998706Y-122584883D01*
X153842196Y-122508800D01*
X153639431Y-122504516D01*
X153442260Y-122559676D01*
X153302529Y-122661926D01*
X153266589Y-122759335D01*
X153219520Y-122832064D01*
X153062232Y-122864873D01*
X152930412Y-122868765D01*
X152722191Y-122860268D01*
X152623555Y-122821461D01*
X152595036Y-122732369D01*
X152594236Y-122698623D01*
X152663230Y-122446704D01*
X152850157Y-122215587D01*
X153043296Y-122083926D01*
X153305963Y-122001059D01*
X153630190Y-121973781D01*
X153972601Y-121996765D01*
X154289818Y-122064688D01*
X154538465Y-122172224D01*
X154658204Y-122282172D01*
X154685257Y-122391161D01*
X154713501Y-122618547D01*
X154739943Y-122933370D01*
X154761591Y-123304674D01*
X154765448Y-123391706D01*
X154785284Y-123774685D01*
X154809875Y-124111319D01*
X154836365Y-124369500D01*
X154861896Y-124517121D01*
X154866823Y-124530971D01*
X154884412Y-124607895D01*
X154826619Y-124647074D01*
X154663440Y-124660682D01*
X154544581Y-124661706D01*
X154317351Y-124654026D01*
X154202897Y-124621663D01*
X154164966Y-124550633D01*
X154163059Y-124514546D01*
X154154031Y-124429825D01*
X154104855Y-124420359D01*
X153982392Y-124490701D01*
X153891164Y-124551899D01*
X153552222Y-124710275D01*
X153212501Y-124740549D01*
X152903020Y-124643631D01*
X152737901Y-124518041D01*
X152596901Y-124347829D01*
X152534009Y-124167128D01*
X152521906Y-123939070D01*
X152528249Y-123866762D01*
X153191883Y-123866762D01*
X153250791Y-124068304D01*
X153401904Y-124187118D01*
X153606808Y-124213017D01*
X153827086Y-124135813D01*
X153924855Y-124061149D01*
X154063561Y-123833670D01*
X154088353Y-123657028D01*
X154088353Y-123405230D01*
X153721466Y-123502013D01*
X153446253Y-123580898D01*
X153286707Y-123650520D01*
X153212198Y-123731975D01*
X153192098Y-123846356D01*
X153191883Y-123866762D01*
X152528249Y-123866762D01*
X152543164Y-123696736D01*
X152594128Y-123502012D01*
G37*
G36*
X146916589Y-123003235D02*
G01*
X146923819Y-123482289D01*
X146945683Y-123815687D01*
X146982446Y-124006490D01*
X147006236Y-124049118D01*
X147178806Y-124128734D01*
X147402420Y-124121490D01*
X147611074Y-124033388D01*
X147663647Y-123989353D01*
X147727791Y-123910100D01*
X147770613Y-123805227D01*
X147796295Y-123645473D01*
X147809015Y-123401574D01*
X147812955Y-123044269D01*
X147813059Y-122943471D01*
X147813059Y-122047000D01*
X148560118Y-122047000D01*
X148560118Y-124661706D01*
X148186589Y-124661706D01*
X147945308Y-124647816D01*
X147830238Y-124602258D01*
X147813059Y-124557701D01*
X147785516Y-124504573D01*
X147683635Y-124525598D01*
X147535793Y-124595053D01*
X147160373Y-124718767D01*
X146801335Y-124706999D01*
X146617765Y-124640889D01*
X146450176Y-124525802D01*
X146327766Y-124358440D01*
X146244616Y-124117615D01*
X146194806Y-123782137D01*
X146172418Y-123330818D01*
X146169646Y-123036853D01*
X146169530Y-122047000D01*
X146916589Y-122047000D01*
X146916589Y-123003235D01*
G37*
G36*
X144739292Y-121982646D02*
G01*
X145077793Y-122060708D01*
X145359004Y-122214240D01*
X145537821Y-122426893D01*
X145636423Y-122657079D01*
X145630369Y-122792749D01*
X145508625Y-122855828D01*
X145315446Y-122868765D01*
X145095812Y-122854463D01*
X144981094Y-122800330D01*
X144936938Y-122719527D01*
X144834725Y-122589846D01*
X144659907Y-122517785D01*
X144459319Y-122503392D01*
X144279799Y-122546718D01*
X144168183Y-122647813D01*
X144152471Y-122718690D01*
X144185444Y-122803658D01*
X144296788Y-122883320D01*
X144505139Y-122965527D01*
X144829133Y-123058131D01*
X145139348Y-123134438D01*
X145432683Y-123268600D01*
X145635072Y-123494330D01*
X145719981Y-123780458D01*
X145721015Y-123817698D01*
X145657934Y-124173469D01*
X145478883Y-124450563D01*
X145198008Y-124628661D01*
X145143793Y-124646844D01*
X144784849Y-124715524D01*
X144399424Y-124727680D01*
X144051547Y-124684026D01*
X143890971Y-124632876D01*
X143631081Y-124474007D01*
X143470095Y-124246415D01*
X143407489Y-124071299D01*
X143341136Y-123839941D01*
X143668702Y-123839941D01*
X143931490Y-123868699D01*
X144123354Y-123971970D01*
X144183032Y-124026706D01*
X144418782Y-124175438D01*
X144682837Y-124208904D01*
X144923104Y-124120699D01*
X144926670Y-124118118D01*
X145019475Y-123989738D01*
X144976826Y-123858082D01*
X144810997Y-123742252D01*
X144649054Y-123686067D01*
X144268509Y-123583149D01*
X144003738Y-123500222D01*
X143824592Y-123425171D01*
X143700923Y-123345886D01*
X143624722Y-123274530D01*
X143500495Y-123045282D01*
X143466768Y-122757028D01*
X143529001Y-122473609D01*
X143552121Y-122425580D01*
X143749917Y-122201520D01*
X144038368Y-122053027D01*
X144380488Y-121980077D01*
X144739292Y-121982646D01*
G37*
G36*
X137485814Y-122932125D02*
G01*
X137630284Y-122560261D01*
X137871163Y-122249929D01*
X137976037Y-122163433D01*
X138213627Y-122059444D01*
X138535900Y-122005724D01*
X138888413Y-122002265D01*
X139216719Y-122049057D01*
X139466374Y-122146092D01*
X139491936Y-122163675D01*
X139733408Y-122368612D01*
X139887072Y-122576279D01*
X139971086Y-122828717D01*
X140003614Y-123167968D01*
X140006294Y-123354353D01*
X139990474Y-123745258D01*
X139931034Y-124030823D01*
X139810005Y-124252903D01*
X139609419Y-124453350D01*
X139496609Y-124541542D01*
X139269490Y-124644748D01*
X138955715Y-124706057D01*
X138613159Y-124721457D01*
X138299694Y-124686936D01*
X138138647Y-124635684D01*
X137831481Y-124418479D01*
X137610587Y-124108699D01*
X137477993Y-123737166D01*
X137435828Y-123335677D01*
X138150732Y-123335677D01*
X138171497Y-123564688D01*
X138245056Y-123811453D01*
X138347150Y-123998555D01*
X138364433Y-124017701D01*
X138555376Y-124116311D01*
X138802145Y-124132312D01*
X139037479Y-124067791D01*
X139143010Y-123993520D01*
X139274557Y-123778976D01*
X139339227Y-123497380D01*
X139339337Y-123194504D01*
X139277207Y-122916124D01*
X139155155Y-122708014D01*
X139074749Y-122645866D01*
X138808659Y-122571098D01*
X138546680Y-122607635D01*
X138327999Y-122737192D01*
X138191799Y-122941483D01*
X138166662Y-123069616D01*
X138156374Y-123248040D01*
X138150732Y-123335677D01*
X137435828Y-123335677D01*
X137435726Y-123334701D01*
X137485814Y-122932125D01*
G37*
%TD*%
M02*
